<svg width="90" height="90" viewBox="0 0 90 90" fill="none" xmlns="http://www.w3.org/2000/svg">
<g clipPath="url(#clip0_2086_137)">
<path d="M63.07 50.8301C63.25 50.9901 63.53 50.9901 63.71 50.8301L69.86 45.1601C70.05 44.9501 70.03 44.6301 69.83 44.4401C69.64 44.2601 69.34 44.2601 69.15 44.4401L63.32 49.7901L61.64 48.5101C61.42 48.3401 61.09 48.3801 60.92 48.6001C60.75 48.8201 60.79 49.1301 61 49.3101L63.08 50.8301H63.07Z" fill="white" stroke="white" strokeMiterlimit="10"/>
<path d="M75.6901 16.55H54.8301V21.0301H56.4301V69.77C56.4301 69.77 56.5901 78.32 64.9801 78.64H65.4601C73.8501 78.32 74.0101 69.77 74.0101 69.77V21.0301H75.6101V16.55H75.6901Z" stroke="white" strokeWidth="3" strokeMiterlimit="10" strokeLinecap="round"/>
<path d="M56.5098 21.03H74.0898" stroke="white" strokeWidth="3" strokeMiterlimit="10" strokeLinecap="round"/>
<path d="M51.0799 74.48C47.0399 77.32 42.1899 78.77 37.2599 78.63C31.1599 78.38 25.4299 75.67 21.3599 71.12C17.0199 66.34 14.8299 59.98 15.2899 53.54C15.6899 47.15 18.0099 40.2 21.9999 32.84C23.1299 35.55 23.6699 38.46 23.5999 41.39C23.5999 42.05 24.1399 42.59 24.7999 42.59C25.4599 42.59 25.9999 42.05 25.9999 41.39C25.9999 27.25 35.2699 26.93 35.5899 26.93C36.2499 26.93 36.7899 26.39 36.7899 25.73C36.7899 25.07 36.2499 24.53 35.5899 24.53C33.8799 24.4 32.2499 23.79 30.8699 22.78C30.3099 22.36 29.7999 21.88 29.3499 21.34C32.0099 17.8 34.8899 14.44 37.9799 11.28C42.4299 15.83 46.4199 20.8 49.8899 26.14L50.6899 22.86C47.3899 18.14 43.6999 13.7 39.6599 9.59998C39.2199 9.13998 38.6199 8.87998 37.9799 8.87998C37.3399 8.85998 36.7299 9.11998 36.2999 9.59998C33.3199 12.66 30.5399 15.92 27.9899 19.35C26.5999 16.46 25.9399 13.28 26.0699 10.08C26.0699 9.41998 25.5299 8.87998 24.8699 8.87998C24.2099 8.87998 23.6699 9.41998 23.6699 10.08C23.6699 24.22 14.4799 24.54 14.0799 24.54C13.4199 24.54 12.8799 25.08 12.8799 25.74C12.8799 26.4 13.4199 26.94 14.0799 26.94C15.7799 27.08 17.4199 27.69 18.7899 28.7C19.5199 29.19 20.1399 29.81 20.6299 30.54C15.9999 38.69 13.4399 46.36 12.9599 53.47C12.4699 60.56 14.8899 67.55 19.6699 72.81C24.1599 77.86 30.4999 80.86 37.2499 81.12H38.1299C43.2999 81.12 48.3499 79.53 52.5899 76.56L51.0699 74.48H51.0799ZM18.3999 25.74C21.4499 24.15 23.7399 21.42 24.7899 18.15C25.2599 19.55 25.9399 20.86 26.7899 22.07C26.7899 22.11 26.8199 22.15 26.8699 22.15C27.9999 23.68 29.4799 24.92 31.1799 25.75C28.1299 27.34 25.8399 30.07 24.7899 33.34C24.3799 32.09 23.7899 30.9 23.0299 29.82C23.0299 29.74 22.9499 29.66 22.8699 29.58C21.7599 27.92 20.2099 26.59 18.3899 25.74H18.3999Z" fill="white"/>
<path d="M34.6201 72.65C22.4801 70.41 21.2001 57.47 21.2001 56.91C21.1601 56.25 20.5801 55.75 19.9201 55.79C19.2601 55.83 18.7601 56.41 18.8001 57.07C18.8001 57.23 20.2401 72.41 34.2201 74.97H34.4601C35.0901 74.97 35.6101 74.48 35.6601 73.85C35.7201 73.25 35.2801 72.71 34.6801 72.65C34.6601 72.65 34.6401 72.65 34.6201 72.65Z" fill="white"/>
</g>
<defs>
<clipPath id="clip0_2086_137">
<rect width="90" height="90" fill="white"/>
</clipPath>
</defs>
</svg>
