<svg width="90" height="90" viewBox="0 0 90 90" fill="none" xmlns="http://www.w3.org/2000/svg">
<g clip-path="url(#clip0_2086_82)">
<path d="M46.1802 50.72C43.8602 48.51 40.7802 47.28 37.5802 47.29C34.3702 47.25 31.2802 48.49 28.9802 50.72C26.7602 52.91 25.4902 55.89 25.4702 59.01C25.4702 62.13 26.7302 65.13 28.9802 67.3C31.3002 69.51 34.3802 70.74 37.5802 70.73C40.7902 70.77 43.8802 69.53 46.1802 67.3C48.4302 65.13 49.6902 62.14 49.6902 59.01C49.6702 55.89 48.4102 52.91 46.1902 50.72H46.1802Z" stroke="white" stroke-width="2" stroke-miterlimit="10"/>
<path opacity="0.5" d="M27.4504 66.18C27.8304 66.72 28.2604 67.23 28.7304 67.69L24.6704 71.04C24.5004 71.2 24.2604 71.26 24.0304 71.2C23.7804 71.2 23.5504 71.08 23.3904 70.88C23.2404 70.7 23.1604 70.48 23.1504 70.24C23.2304 70 23.3104 69.68 23.5504 69.6L27.4504 66.17V66.18Z" fill="white"/>
<path d="M47.9304 66.18C47.5304 66.74 47.0504 67.22 46.6504 67.69L50.6304 71.04C50.8304 71.2 51.1004 71.26 51.3504 71.2C51.5904 71.18 51.8204 71.06 51.9904 70.88C52.1504 70.71 52.2104 70.47 52.1504 70.24C52.1504 69.99 52.0304 69.76 51.8304 69.6L47.9304 66.17V66.18Z" fill="white"/>
<path d="M26.6602 70.4801C27.0402 71.3601 27.2302 72.3101 27.2202 73.2701C27.2402 77.1201 24.1302 80.2501 20.2902 80.2701C16.4502 80.2901 13.3102 77.1801 13.2902 73.3401C13.2702 69.5001 16.3802 66.3601 20.2202 66.3401C21.6702 66.3401 23.0802 66.7801 24.2702 67.6101L25.3102 66.7301C23.8902 65.6501 22.1502 65.0601 20.3702 65.0601C15.8802 65.0601 12.2402 68.7001 12.2402 73.1901C12.2402 77.6801 15.8802 81.3201 20.3702 81.3201C24.8602 81.3201 28.5002 77.6801 28.5002 73.1901C28.5102 71.9401 28.2102 70.7101 27.6202 69.6101L26.6602 70.4801Z" fill="white"/>
<path d="M27.4504 66.18C27.8304 66.72 28.2604 67.23 28.7304 67.69L24.6704 71.04C24.5004 71.2 24.2604 71.26 24.0304 71.2C23.7804 71.2 23.5504 71.08 23.3904 70.88C23.2404 70.7 23.1604 70.48 23.1504 70.24C23.2304 70 23.3104 69.68 23.5504 69.6L27.4504 66.17V66.18Z" fill="white"/>
<path d="M21.6402 78.37C18.3902 78.37 15.7502 75.75 15.7402 72.5C15.7402 72.49 15.7402 72.48 15.7402 72.47" stroke="white" stroke-width="1.5" stroke-linecap="round" stroke-linejoin="round"/>
<path d="M48.5702 70.4801C48.1902 71.3601 48.0002 72.3101 48.0102 73.2701C47.9902 77.1201 51.1002 80.2501 54.9402 80.2701C58.7802 80.2901 61.9202 77.1801 61.9402 73.3401C61.9602 69.5001 58.8502 66.3601 55.0102 66.3401C53.5602 66.3401 52.1502 66.7801 50.9602 67.6101L49.9202 66.7301C51.3402 65.6501 53.0802 65.0601 54.8602 65.0601C59.3502 65.0601 62.9902 68.7001 62.9902 73.1901C62.9902 77.6801 59.3502 81.3201 54.8602 81.3201C50.4002 81.3201 46.7802 77.7301 46.7302 73.2701C46.7202 72.0201 47.0202 70.7901 47.6102 69.6901L48.5702 70.4901V70.4801Z" fill="white"/>
<path d="M54.0601 77.9699C57.3101 77.9699 59.9501 75.3499 59.9601 72.0999C59.9601 72.0899 59.9601 72.0799 59.9601 72.0699" stroke="white" stroke-width="1.5" stroke-linecap="round" stroke-linejoin="round"/>
<path d="M40.04 67.3C43.29 67.3 45.93 64.68 45.94 61.43C45.94 61.42 45.94 61.41 45.94 61.4" stroke="white" stroke-width="2" stroke-linecap="round" stroke-linejoin="round"/>
<path d="M12.8701 43.2299V9.68994" stroke="white" stroke-width="2" stroke-miterlimit="10" stroke-linecap="round"/>
<path d="M22.1101 18.69L20.6001 15.58H19.8801V18.69H17.8101V10.4H21.1601C21.5701 10.39 21.9801 10.47 22.3601 10.64C22.7001 10.78 23.0001 11 23.2401 11.28C23.4701 11.54 23.6601 11.84 23.8001 12.16C23.9401 12.49 23.9901 12.84 23.9601 13.2C23.9801 13.47 23.9601 13.74 23.8801 14C23.8201 14.23 23.7101 14.45 23.5601 14.64C23.4201 14.82 23.2601 14.98 23.0801 15.12C22.9301 15.24 22.7701 15.34 22.6001 15.44L24.4301 18.95H22.1101V18.71V18.69ZM21.7101 12.47C21.5401 12.31 21.3101 12.22 21.0701 12.23H19.8701V13.9H21.0701C21.3101 13.92 21.5401 13.83 21.7101 13.66C21.8501 13.51 21.9401 13.31 21.9501 13.1C21.9501 12.86 21.8701 12.64 21.7101 12.46V12.47Z" fill="white"/>
<path d="M25.54 18.69V10.4H31.2V12.23H27.62V13.66H30.73V15.49H27.62V16.92H31.2V18.75H25.54V18.67V18.69Z" fill="white"/>
<path d="M36.3002 12.24V18.77H34.2302V12.24H32.1602V10.41H38.2902V12.24H36.3002Z" fill="white"/>
<path d="M43.4702 18.6901L43.0702 17.4201H40.5202L40.1202 18.6901H37.9702L41.0002 10.3201H42.5902L45.6202 18.6901H43.4702ZM41.8702 13.5101L41.0702 15.7401H42.5002L41.8702 13.5101Z" fill="white"/>
<path d="M46.5 18.69V10.4H48.57V18.77H46.5V18.69Z" fill="white"/>
<path d="M54.9402 18.69L52.2302 14.47V18.69H50.1602V10.4H51.9902L54.7002 14.62V10.4H56.7702V18.77H54.9402V18.69Z" fill="white"/>
<path d="M63.7898 17.26C63.6398 17.6 63.3898 17.88 63.0698 18.06C62.7698 18.3 62.4098 18.46 62.0298 18.54C61.0298 18.78 59.9898 18.75 58.9998 18.46C58.4498 18.29 57.9598 17.99 57.5698 17.58L58.8498 16.31C59.0798 16.56 59.3898 16.73 59.7298 16.79C60.0698 16.88 60.4198 16.94 60.7698 16.95C61.5698 16.95 61.9698 16.71 61.9698 16.23C61.9798 16.06 61.9198 15.88 61.8098 15.75C61.6398 15.64 61.4498 15.56 61.2498 15.51L60.2898 15.35C59.6698 15.31 59.0798 15.06 58.6198 14.63C58.2098 14.17 58.0098 13.57 58.0598 12.96C58.0598 12.6 58.1398 12.24 58.2998 11.92C58.4198 11.59 58.6398 11.31 58.9398 11.12C59.2198 10.87 59.5398 10.68 59.8998 10.56C60.2998 10.4 60.7398 10.32 61.1798 10.32C61.7198 10.31 62.2598 10.39 62.7698 10.56C63.2398 10.7 63.6598 10.98 63.9698 11.36L62.6198 12.56C62.5098 12.43 62.3698 12.32 62.2198 12.24C62.0598 12.16 61.8998 12.16 61.8198 12.08C61.6598 12.08 61.5798 12 61.4198 12H61.0998C60.9398 11.99 60.7698 12.01 60.6198 12.08C60.4598 12.16 60.3798 12.16 60.2998 12.24C60.2198 12.32 60.1398 12.4 60.1398 12.48C60.1398 12.56 60.0598 12.64 60.0598 12.72V12.88C60.0598 12.96 60.1398 13.04 60.2198 13.12C60.2998 13.2 60.3798 13.2 60.4598 13.28C60.5498 13.34 60.6698 13.37 60.7798 13.36L61.8198 13.52C62.4398 13.56 63.0298 13.81 63.4898 14.23C63.7198 14.45 63.8898 14.72 63.9698 15.03C64.0698 15.37 64.1198 15.72 64.1298 16.07C64.0898 16.48 63.9798 16.89 63.8098 17.27L63.7898 17.26Z" fill="white"/>
<g opacity="0.5">
<path d="M17.8899 29.84V21.47H23.5499V23.3H19.9599V24.73H23.0699V26.56H19.9599V27.99H23.5399V29.82H17.8799L17.8899 29.84Z" fill="white"/>
<path d="M30.3201 28.4099C30.1701 28.7499 29.9201 29.0299 29.6001 29.2099C29.3001 29.4499 28.9401 29.6099 28.5601 29.6899C27.5601 29.9299 26.5201 29.8999 25.5301 29.6099C24.9801 29.4399 24.4901 29.1399 24.1001 28.7299L25.3801 27.4499C25.6101 27.6999 25.9201 27.8699 26.2601 27.9299C26.6001 28.0199 26.9501 28.0799 27.3001 28.0899C28.1001 28.0899 28.5001 27.8499 28.5001 27.3699C28.5101 27.1999 28.4501 27.0199 28.3401 26.8899C28.1701 26.7799 27.9801 26.6999 27.7801 26.6499L26.7401 26.4899C26.1201 26.4499 25.5301 26.1999 25.0701 25.7699C24.6601 25.3099 24.4601 24.7099 24.5101 24.0999C24.5101 23.7399 24.5901 23.3799 24.7501 23.0599C24.8701 22.7299 25.0901 22.4499 25.3901 22.2599C25.6701 22.0099 25.9901 21.8199 26.3501 21.6999C26.7601 21.5399 27.1901 21.4599 27.6301 21.4599C28.1701 21.4499 28.7101 21.5299 29.2201 21.6999C29.6901 21.8399 30.1101 22.1199 30.4201 22.4999L29.2201 23.6999C29.1101 23.5699 28.9701 23.4599 28.8201 23.3799C28.6601 23.2999 28.5001 23.2999 28.4201 23.2199C28.3001 23.1499 28.1601 23.1199 28.0201 23.1399H27.7001C27.5401 23.1299 27.3701 23.1499 27.2201 23.2199C27.0601 23.2999 26.9801 23.2999 26.9001 23.3799C26.8201 23.4599 26.7401 23.5399 26.7401 23.6199C26.7401 23.6999 26.6601 23.7799 26.6601 23.8599V24.0199C26.6601 24.0999 26.7401 24.1799 26.8201 24.2599C26.9001 24.3399 26.9801 24.3399 27.0601 24.4199C27.1501 24.4799 27.2701 24.5099 27.3801 24.4999L28.4201 24.6599C29.0401 24.6999 29.6301 24.9499 30.0901 25.3799C30.3201 25.5999 30.4901 25.8699 30.5701 26.1799C30.6701 26.5199 30.7201 26.8699 30.7301 27.2199C30.6601 27.6299 30.5301 28.0299 30.3401 28.4099H30.3201Z" fill="white"/>
<path d="M37.3299 28.41C37.1799 28.75 36.9299 29.03 36.6099 29.21C36.3099 29.45 35.9499 29.61 35.5699 29.69C34.5699 29.93 33.5299 29.9 32.5399 29.61C31.9899 29.44 31.4999 29.14 31.1099 28.73L32.3899 27.45C32.6199 27.7 32.9299 27.87 33.2699 27.93C33.6099 28.02 33.9599 28.08 34.3099 28.09C35.1099 28.09 35.5099 27.85 35.5099 27.37C35.5199 27.2 35.4599 27.02 35.3499 26.89C35.1799 26.78 34.9899 26.7 34.7899 26.65L33.7499 26.49C33.1299 26.45 32.5399 26.2 32.0799 25.77C31.7499 25.25 31.5799 24.64 31.5999 24.02C31.5999 23.66 31.6799 23.3 31.8399 22.98C31.9599 22.65 32.1799 22.37 32.4799 22.18C32.7599 21.93 33.0799 21.74 33.4399 21.62C33.8499 21.46 34.2799 21.38 34.7199 21.38C35.2599 21.37 35.7999 21.45 36.3099 21.62C36.7799 21.76 37.1999 22.04 37.5099 22.42L36.1599 23.7C36.0499 23.57 35.9099 23.46 35.7599 23.38C35.5999 23.3 35.4399 23.3 35.3599 23.22C35.2399 23.15 35.0999 23.12 34.9599 23.14H34.6399C34.4799 23.13 34.3099 23.15 34.1599 23.22C33.9999 23.3 33.9199 23.3 33.8399 23.38C33.7599 23.46 33.6799 23.54 33.6799 23.62C33.6799 23.7 33.5999 23.78 33.5999 23.86V24.02C33.5999 24.1 33.6799 24.18 33.7599 24.26C33.8399 24.34 33.9199 24.34 33.9999 24.42C34.0899 24.48 34.2099 24.51 34.3199 24.5L35.3599 24.66C35.9799 24.7 36.5699 24.95 37.0299 25.38C37.2599 25.6 37.4299 25.87 37.5099 26.18C37.6099 26.52 37.6599 26.87 37.6699 27.22C37.6199 27.63 37.5199 28.03 37.3499 28.41H37.3299Z" fill="white"/>
<path d="M38.9297 29.84V21.47H44.5897V23.3H41.0097V24.73H44.1197V26.56H41.0097V27.99H44.5897V29.82H38.9297V29.84Z" fill="white"/>
<path d="M50.8 29.84L48.09 25.62V29.84H46.02V21.47H47.85L50.56 25.69V21.47H52.63V29.84H50.8Z" fill="white"/>
<path d="M57.89 23.31V29.84H55.82V23.31H53.75V21.48H59.89V23.31H57.9H57.89Z" fill="white"/>
<path d="M61.1597 29.84V21.47H63.2297V29.84H61.1597Z" fill="white"/>
<path d="M69.52 29.84L69.12 28.56H66.57L66.17 29.84H64.02L67.05 21.47H68.64L71.67 29.84H69.52ZM67.92 24.67L67.12 26.9H68.55L67.92 24.67Z" fill="white"/>
<path d="M72.5498 29.84V21.47H74.6198V28H78.1298V29.83H72.5498V29.84Z" fill="white"/>
</g>
<path d="M23.6301 41V37.02L22.4301 39.09H21.1601L19.9601 37.02V41H17.8901V32.63H19.8801L21.7901 36.3L23.7101 32.63H25.7001V41H23.6301Z" fill="white"/>
<path d="M27.3701 41V32.63H29.4401V41H27.3701Z" fill="white"/>
<path d="M35.82 41L33.11 36.78V41H31.04V32.63H32.87L35.58 36.85V32.63H37.65V41H35.82Z" fill="white"/>
<path d="M39.3301 41V32.63H44.9901V34.46H41.4101V35.89H44.5201V37.72H41.4101V39.15H44.9901V40.98H39.3301V41Z" fill="white"/>
<path d="M50.6403 41L49.1303 37.89H48.4103V41H46.3403V32.63H49.6903C50.1003 32.62 50.5103 32.7 50.8903 32.87C51.2303 33.01 51.5303 33.23 51.7703 33.51C52.0003 33.77 52.1903 34.07 52.3303 34.39C52.4703 34.72 52.5203 35.07 52.4903 35.43C52.5103 35.7 52.4903 35.97 52.4103 36.23C52.3503 36.46 52.2403 36.68 52.0903 36.87C51.9503 37.05 51.7903 37.21 51.6103 37.35C51.4703 37.48 51.3103 37.59 51.1303 37.67L52.9603 41.18H50.6403V41.02V41ZM50.3203 34.78C50.1503 34.62 49.9203 34.53 49.6803 34.54H48.4803V36.21H49.6803C49.9203 36.23 50.1503 36.14 50.3203 35.97C50.4603 35.82 50.5503 35.62 50.5603 35.41C50.5803 35.17 50.5003 34.94 50.3203 34.77V34.78Z" fill="white"/>
<path d="M58.77 41L58.37 39.72H55.82L55.42 41H53.27L56.3 32.63H57.89L60.92 41H58.77ZM57.1 35.82L56.38 38.05H57.81L57.09 35.82H57.1Z" fill="white"/>
<path d="M61.71 41V32.63H63.78V39.16H67.29V40.99H61.71V41Z" fill="white"/>
<path d="M73.8201 39.56C73.6701 39.9 73.4201 40.18 73.1001 40.36C72.8001 40.6 72.4401 40.76 72.0601 40.84C71.0601 41.08 70.0201 41.05 69.0301 40.76C68.4801 40.59 67.9901 40.29 67.6001 39.88L68.8801 38.6C69.1101 38.85 69.4201 39.02 69.7601 39.08C70.1001 39.17 70.4501 39.23 70.8001 39.24C71.6001 39.24 72.0001 39 72.0001 38.52C72.0101 38.35 71.9501 38.17 71.8401 38.04C71.6701 37.93 71.4801 37.85 71.2801 37.8L70.2401 37.64C69.6201 37.6 69.0301 37.35 68.5701 36.92C68.1601 36.46 67.9601 35.86 68.0101 35.25C68.0101 34.89 68.0901 34.53 68.2501 34.21C68.3701 33.88 68.5901 33.6 68.8901 33.41C69.1701 33.16 69.4901 32.97 69.8501 32.85C70.2501 32.69 70.6901 32.61 71.1301 32.61C71.6701 32.6 72.2101 32.68 72.7201 32.85C73.1901 32.99 73.6101 33.27 73.9201 33.65L72.7201 34.85C72.6101 34.72 72.4701 34.61 72.3201 34.53C72.1601 34.45 72.0001 34.45 71.9201 34.37C71.7601 34.37 71.6801 34.29 71.5201 34.29H71.2001C71.0401 34.28 70.8701 34.3 70.7201 34.37C70.5601 34.45 70.4801 34.45 70.4001 34.53C70.3201 34.61 70.2401 34.69 70.2401 34.77C70.2401 34.85 70.1601 34.93 70.1601 35.01V35.17C70.1601 35.25 70.2401 35.33 70.3201 35.41C70.4001 35.49 70.4801 35.49 70.5601 35.57C70.6501 35.63 70.7701 35.66 70.8801 35.65L71.9201 35.81C72.5401 35.85 73.1301 36.1 73.5901 36.53C73.8201 36.75 73.9901 37.02 74.0701 37.33C74.1701 37.67 74.2201 38.02 74.2301 38.37C74.1201 38.77 73.9901 39.17 73.8301 39.56H73.8201Z" fill="white"/>
</g>
<defs>
<clipPath id="clip0_2086_82">
<rect width="90" height="90" fill="white"/>
</clipPath>
</defs>
</svg>
