<svg width="90" height="90" viewBox="0 0 90 90" fill="none" xmlns="http://www.w3.org/2000/svg">
<g clipPath="url(#clip0_2086_122)">
<path d="M37.3599 47.2701C37.3599 42.2601 45.4699 32.3101 45.4699 32.3101C45.4699 32.3101 53.5799 42.2501 53.5799 47.2701C53.5999 51.6401 50.0799 55.2001 45.7099 55.2301H45.4699C41.0999 55.3401 37.4699 51.8901 37.3599 47.5201V47.2801V47.2701Z" stroke="white" strokeWidth="2.1" strokeLinecap="round" strokeLinejoin="round"/>
<path d="M71.9698 22.53C84.4898 37.16 82.7798 59.16 68.1498 71.68C55.5098 82.5 36.9798 82.87 23.9098 72.58M17.0698 65.41C5.88976 49.74 9.51976 27.98 25.1898 16.8C37.2998 8.15 53.5698 8.15 65.6798 16.8" stroke="white" strokeWidth="3" strokeLinecap="round" strokeLinejoin="round"/>
<path d="M70.7798 28.4999V21.8199H77.4598" stroke="white" strokeWidth="3" strokeLinecap="round" strokeLinejoin="round"/>
<path d="M19.22 60V66.68H12.54" stroke="white" strokeWidth="3" strokeLinecap="round" strokeLinejoin="round"/>
<path d="M19.7 32.31C26.2888 32.31 31.63 26.9687 31.63 20.38C31.63 13.7912 26.2888 8.44995 19.7 8.44995C13.1113 8.44995 7.77002 13.7912 7.77002 20.38C7.77002 26.9687 13.1113 32.31 19.7 32.31Z" fill="white"/>
<path d="M69.35 81.49C76.4689 81.49 82.24 75.7189 82.24 68.6C82.24 61.481 76.4689 55.71 69.35 55.71C62.231 55.71 56.46 61.481 56.46 68.6C56.46 75.7189 62.231 81.49 69.35 81.49Z" fill="white"/>
<path d="M61.2999 67.53C60.8899 67.08 60.6799 66.48 60.7099 65.87V61.38H62.0799V65.97C62.0399 66.25 62.1099 66.53 62.2799 66.75C62.4399 66.96 62.7199 67.04 62.9599 66.95C63.1999 66.95 63.4399 66.87 63.6399 66.75C63.7599 66.51 63.8299 66.24 63.8399 65.97V61.38H65.2099V65.97C65.2299 66.55 65.0199 67.11 64.6199 67.53C64.1599 67.92 63.5699 68.13 62.9599 68.12C62.3499 68.15 61.7499 67.94 61.2899 67.53H61.2999ZM67.5499 68.02L65.5999 61.38H67.0699L68.1399 66.17L69.2199 61.38H70.6899L68.7299 68.02H67.5599H67.5499ZM70.5899 76.27C70.1799 75.82 69.9699 75.22 69.9999 74.61V70.02H71.3699V74.61C71.3299 74.89 71.3999 75.17 71.5699 75.39C71.7299 75.6 72.0099 75.68 72.2499 75.59C72.4899 75.59 72.7299 75.51 72.9299 75.39C73.0499 75.15 73.1199 74.88 73.1299 74.61V70.02H74.4999V74.61C74.5199 75.19 74.3099 75.75 73.9099 76.17C73.4499 76.56 72.8599 76.77 72.2499 76.76C71.6499 76.85 71.0399 76.67 70.5799 76.27H70.5899ZM75.4799 76.76V70.12H79.1899V71.19H76.8399V72.95H78.8899V74.02H76.8399V76.76H75.4699H75.4799Z" fill="black"/>
<path d="M65.0498 72.89L74.5998 64.3" stroke="black" strokeMiterlimit="10"/>
<path d="M45.48 49.5V41.86" stroke="white" strokeWidth="2.1" strokeLinecap="round" strokeLinejoin="round"/>
<path d="M41.6602 45.6801H49.3002" stroke="white" strokeWidth="2.1" strokeLinecap="round" strokeLinejoin="round"/>
<path d="M17.7699 24.38L16.2399 21.26H15.1399V24.38H13.6099V16.55H16.6799C18.2799 16.55 19.2199 17.6401 19.2199 18.9501C19.2199 20.0501 18.5499 20.73 17.7899 21.01L19.5399 24.39H17.7699V24.38ZM16.5799 17.91H15.1399V19.98H16.5799C17.2499 19.98 17.6899 19.5501 17.6899 18.9501C17.6899 18.3501 17.2499 17.92 16.5799 17.92V17.91Z" fill="black"/>
<path d="M25.5499 23.59C24.9999 24.14 24.3299 24.45 23.4399 24.45C22.5499 24.45 21.8699 24.14 21.3199 23.59C20.5299 22.8 20.5499 21.82 20.5499 20.47C20.5499 19.12 20.5299 18.14 21.3199 17.35C21.8699 16.8 22.5499 16.49 23.4399 16.49C24.3299 16.49 24.9999 16.8 25.5499 17.35C26.3399 18.14 26.3299 19.12 26.3299 20.47C26.3299 21.82 26.3399 22.8 25.5499 23.59ZM24.4199 18.26C24.1999 18.01 23.8599 17.84 23.4399 17.84C23.0199 17.84 22.6699 18.01 22.4499 18.26C22.1499 18.59 22.0799 18.95 22.0799 20.46C22.0799 21.97 22.1599 22.33 22.4499 22.66C22.6699 22.91 23.0199 23.08 23.4399 23.08C23.8599 23.08 24.1999 22.91 24.4199 22.66C24.7199 22.33 24.8099 21.97 24.8099 20.46C24.8099 18.95 24.7199 18.59 24.4199 18.26Z" fill="black"/>
</g>
<defs>
<clipPath id="clip0_2086_122">
<rect width="90" height="90" fill="white"/>
</clipPath>
</defs>
</svg>
