<svg width="90" height="90" viewBox="0 0 90 90" fill="none" xmlns="http://www.w3.org/2000/svg">
<g clipPath="url(#clip0_2086_58)">
<path d="M47.4501 74.18C43.3701 77.03 38.4701 78.5 33.4901 78.36C27.3501 78.14 21.5701 75.43 17.4601 70.86C13.1001 66.08 10.8801 59.72 11.3001 53.27C11.7301 46.85 14.0201 39.93 18.1001 32.57C19.2501 35.28 19.8101 38.21 19.7501 41.15C19.7501 41.82 20.2901 42.37 20.9701 42.37C21.6501 42.37 22.1901 41.83 22.1901 41.15C22.1901 27.02 31.5701 26.66 31.8501 26.66C32.5301 26.66 33.0801 26.11 33.0801 25.43C33.0801 24.75 32.5301 24.2 31.8501 24.2C30.1301 24.06 28.4701 23.46 27.0501 22.47C26.4801 22.06 25.9701 21.58 25.5501 21.02C28.2401 17.47 31.1601 14.1 34.2801 10.93C38.7801 15.46 42.8101 20.44 46.3001 25.78L47.0901 22.53C43.7401 17.8 40.0101 13.37 35.9201 9.25997C35.4701 8.78997 34.8501 8.52997 34.2001 8.53997C33.5501 8.51997 32.9201 8.77997 32.4801 9.25997C29.4801 12.32 26.6801 15.57 24.1101 18.99C22.7201 16.09 22.0601 12.9 22.1801 9.68997C22.1801 9.01997 21.6401 8.46997 20.9601 8.46997C20.2801 8.46997 19.7401 9.00997 19.7401 9.68997C19.7401 23.82 10.4401 24.18 10.0801 24.18C9.4001 24.18 8.8501 24.73 8.8501 25.41C8.8501 26.09 9.4001 26.64 10.0801 26.64C11.8001 26.78 13.4601 27.38 14.8801 28.37C15.5901 28.88 16.2101 29.49 16.7401 30.18C12.0901 38.33 9.4401 46.04 9.0101 53.11C8.5001 60.22 10.9601 67.22 15.8101 72.44C20.3501 77.51 26.7601 80.5 33.5601 80.73H34.4201C39.6301 80.73 44.7301 79.15 49.0201 76.19L47.5201 74.1L47.4501 74.17V74.18ZM14.4501 25.43C17.5201 23.87 19.8401 21.14 20.8901 17.86C21.3701 19.25 22.0401 20.56 22.8901 21.75C22.8901 21.79 22.9201 21.82 22.9601 21.82C24.1001 23.36 25.6001 24.6 27.3301 25.43C24.2601 26.99 21.9401 29.72 20.8901 33C20.4501 31.75 19.8501 30.56 19.1001 29.47C19.1001 29.4 19.0301 29.33 18.9601 29.25C17.8301 27.59 16.2701 26.27 14.4501 25.43Z" fill="white"/>
<path d="M30.8399 72.44C18.5999 70.22 17.3099 57.34 17.3099 56.84C17.2699 56.17 16.6899 55.66 16.0199 55.69C15.3499 55.73 14.8399 56.31 14.8699 56.98C14.8699 57.62 16.2999 72.22 30.4699 74.73H30.6799C31.3199 74.72 31.8499 74.22 31.8999 73.58C31.9499 72.96 31.4799 72.41 30.8599 72.37C30.8499 72.37 30.8399 72.37 30.8199 72.37V72.44H30.8399Z" fill="white"/>
<path d="M38.9701 33.79V35.44C38.9701 37.44 37.9701 38.59 36.0401 38.59H35.1101V43.39H33.1001V30.72H36.0301C38.0301 30.72 38.9601 31.79 38.9601 33.87V33.8L38.9701 33.79ZM35.0401 32.43V36.72H35.9701C36.6101 36.72 36.9701 36.43 36.9701 35.5V33.57C36.9701 32.64 36.6101 32.35 35.9701 32.35H35.0401V32.42V32.43Z" fill="white"/>
<path d="M41.9104 30.6399V40.4399C41.9104 41.3699 42.3404 41.6599 42.9104 41.6599C43.4804 41.6599 43.9104 41.2999 43.9104 40.4399V30.6399H45.7704V40.2999C45.7704 42.2999 44.7704 43.5199 42.8404 43.5199C40.9104 43.5199 39.9004 42.3799 39.9004 40.2999V30.6399H41.9004H41.9104Z" fill="white"/>
<path d="M51.3504 43.2999C51.1504 42.7999 51.0704 42.2599 51.1404 41.7299V39.7299C51.1404 38.5799 50.7104 38.0799 49.8504 38.0799H49.1304V43.2299H47.1304V30.5599H50.1404C52.2204 30.5599 53.0704 31.4899 53.0704 33.4899V34.4899C53.2004 35.5299 52.6904 36.5499 51.7804 37.0699C52.7804 37.4999 53.0704 38.4299 53.0704 39.7899V41.7199C53.0304 42.2499 53.1004 42.7899 53.2804 43.2899H51.3504V43.2999ZM49.2104 32.4299V36.2899H50.0004C50.7204 36.2899 51.2204 35.9299 51.2204 34.9299V33.7099C51.2204 32.7799 50.9304 32.4199 50.2204 32.4199H49.2204L49.2104 32.4299Z" fill="white"/>
<path d="M54.5005 30.6399H56.5005V43.3099H54.5005V30.6399Z" fill="white"/>
<path d="M57.3701 30.6399H63.5301V32.4299H61.4501V43.3099H59.4501V32.4299H57.3701V30.6399Z" fill="white"/>
<path d="M66.2402 39.0799L63.7402 30.6399H65.8202L67.3202 36.4399L68.8202 30.6399H70.7502L68.2502 39.0799V43.2999H66.2502V39.0799H66.2402Z" fill="white"/>
<path d="M33.0303 44.24H35.0303V56.91H33.0303V44.24Z" fill="white"/>
<path d="M38.2602 47.75V56.91H36.4702V44.24H38.9702L41.0502 51.83V44.24H42.8402V56.91H40.7602L38.2602 47.75Z" fill="white"/>
<path d="M49.0603 49.5299H51.7803V51.3199H49.0603V55.0399H52.4903V56.8299H47.0503V44.1599H52.4903V45.9499H49.0603V49.5299Z" fill="white"/>
<path d="M56.7203 54.54L58.2303 44.23H60.0903L58.1603 56.9H55.2303L53.3003 44.23H55.3003L56.8003 54.54H56.7303H56.7203Z" fill="white"/>
<path d="M62.9504 49.5299H65.6704V51.3199H62.9504V55.0399H66.3804V56.8299H60.9404V44.1599H66.3804V45.9499H62.9504V49.5299Z" fill="white"/>
<path d="M71.8201 56.8999C71.6201 56.3999 71.5401 55.8599 71.6101 55.3299V53.3299C71.6101 52.1799 71.1801 51.6799 70.3201 51.6799H69.6001V56.8299H67.6001V44.1599H70.6101C72.6901 44.1599 73.5401 45.0899 73.5401 47.0899V48.0899C73.6701 49.1299 73.1601 50.1499 72.2501 50.6699C73.2501 51.0999 73.5401 52.0299 73.5401 53.3899V55.3199C73.5001 55.8499 73.5701 56.3899 73.7501 56.8899H71.8201V56.8999ZM69.6801 46.0299V49.8899H70.4701C71.1901 49.8899 71.6901 49.5299 71.6901 48.5299V47.3099C71.6901 46.3799 71.4001 46.0199 70.6901 46.0199H69.6901L69.6801 46.0299Z" fill="white"/>
<path d="M76.6201 52.68L74.1201 44.24H76.2001L77.7001 50.04L79.2001 44.24H81.1301L78.6301 52.68V56.9H76.6301V52.68H76.6201Z" fill="white"/>
<path d="M35.8203 57.84C37.7503 57.84 38.6103 59.13 38.6103 60.99V67.36C38.6103 69.22 37.7503 70.51 35.8203 70.51H33.0303V57.84H35.8203ZM35.8203 69.72C37.2503 69.72 37.8203 68.79 37.8203 67.36V60.92C37.8203 59.56 37.2503 58.56 35.8203 58.56H33.8903V69.73H35.8203V69.72Z" fill="white"/>
<path d="M42.69 57.8399C44.62 57.8399 45.41 58.9099 45.41 60.6999V61.7699C45.41 63.2699 44.84 64.1299 43.55 64.4199C44.75 64.6499 45.57 65.7799 45.41 66.9999V68.9999C45.36 69.5199 45.46 70.0399 45.7 70.4999H44.84C44.61 70.0299 44.52 69.5099 44.55 68.9999V66.9899C44.55 65.2699 43.62 64.8399 42.19 64.8399H40.9V70.4899H40.04V57.8199H42.69V57.8399ZM42.19 64.0599C43.69 64.0599 44.55 63.6299 44.55 61.9099V60.6899C44.55 59.3299 44.05 58.5399 42.62 58.5399H40.83V64.0499H42.19V64.0599Z" fill="white"/>
<path d="M46.9902 60.9099C46.9902 59.0499 47.8502 57.6899 49.7802 57.6899C51.7102 57.6899 52.5702 59.0499 52.5702 60.9099V67.4199C52.5702 69.2799 51.7102 70.6399 49.7802 70.6399C47.8502 70.6399 46.9902 69.2799 46.9902 67.4199V60.9099ZM47.7802 67.4299C47.7802 68.7899 48.3502 69.7899 49.7102 69.7899C51.0702 69.7899 51.7102 68.7899 51.7102 67.4299V60.8499C51.7102 59.4899 51.1402 58.4899 49.7102 58.4899C48.2802 58.4899 47.7802 59.4899 47.7802 60.8499V67.4299Z" fill="white"/>
<path d="M56.5804 57.84C58.5104 57.84 59.3004 59.06 59.3004 60.92V62.28C59.3004 64.28 58.3704 65.29 56.3704 65.29H54.8004V70.51H53.9404V57.84H56.5904H56.5804ZM56.3604 64.49C57.7904 64.49 58.4404 63.85 58.4404 62.27V60.77C58.4404 59.41 57.9404 58.48 56.5804 58.48H54.7904V64.42H56.3604V64.49Z" fill="white"/>
</g>
<defs>
<clipPath id="clip0_2086_58">
<rect width="90" height="90" fill="white"/>
</clipPath>
</defs>
</svg>
